<svg width="49" height="48" fill="none" xmlns="http://www.w3.org/2000/svg"><path d="M26.335 9.23c-.654 0-1.337.04-2.037.123l.406 1.254c.613-.06 1.229-.088 1.845-.084h.21l-.42-1.292h-.004zm8.104 1.254l-.084 1.4c.7.235 1.38.483 2.059.76l.09-1.414c-.192-.105-.727-.364-2.065-.746zm-17.46.805c-.561.288-1.113.591-1.657.91l.98 1.492c.55-.34 1.079-.666 1.632-.939l-.956-1.46v-.003zm10.116.077a19.598 19.598 0 00-2.29.095c-1.55.14-3.181.591-4.83 1.312C15.01 14.937 9.9 19.488 6.557 25.061c-3.343 5.57-4.52 10.502-4.901 12.612-.13.708-.175 1.096-.175 1.096h16.768s-.2-.91-.336-2.373a28.654 28.654 0 01-.116-2.563c0-1.925.193-4.211.854-6.504a16.508 16.508 0 011.376-3.392 14.366 14.366 0 012.262-3.13 14.25 14.25 0 013.37-2.576c.869-.42 2.444-1.278 4.713-1.712a15.204 15.204 0 012.496-.266c.91-.017 1.897.042 2.958.21 2.121.34 4.544 1.12 7.264 2.59a36.835 36.835 0 014.298 2.76c.385-.316.739-.568.739-.568s-.686-.69-1.915-1.701a43.017 43.017 0 00-5.135-3.652 37.92 37.92 0 00-3.494-1.883 30.979 30.979 0 00-3.952-1.54 26.176 26.176 0 00-4.292-.945 21.165 21.165 0 00-2.24-.158h-.004zm7.302 5.776l-.08 1.341c.7.021 1.4.105 2.1.252l.088-1.313c-.695-.142-1.4-.236-2.108-.28zm-4.964.511c-.635.187-1.259.414-1.865.68l.486 1.463c.595-.293 1.212-.54 1.845-.739l-.466-1.4v-.004zm-21.031.084c-.55.529-1.086 1.061-1.572 1.593l1.635 1.4a21.66 21.66 0 011.442-1.673l-1.505-1.32zm15.192 3.144c-.49.448-.93.935-1.312 1.425l1.018 1.522c.36-.528.784-1.015 1.253-1.505l-.959-1.442zm-3.752 5.92a20.105 20.105 0 00-.637 2.331l1.715 1.358c.087-.826.241-1.652.455-2.482l-1.533-1.207zm-18.781.847A55.43 55.43 0 000 30.193l2.44.892a82.69 82.69 0 011.06-2.548l-2.44-.89zm17.825 6.871a20.92 20.92 0 00.259 2.678l2.541.91a28.03 28.03 0 01-.504-2.754l-2.296-.834z" fill="url(#paint0_linear)"/><path d="M38.886 33.972c.684 1.123 1.574 1.949 3.147 1.949 1.322 0 2.167-.665 2.167-1.583 0-1.1-.868-1.49-2.323-2.13l-.797-.345c-2.302-.987-3.832-2.223-3.832-4.836 0-2.407 1.823-4.24 4.672-4.24 2.029 0 3.487.71 4.538 2.57l-2.484 1.605c-.547-.987-1.138-1.375-2.054-1.375-.934 0-1.526.596-1.526 1.375 0 .963.592 1.353 1.961 1.949l.798.344c2.71 1.17 4.24 2.361 4.24 5.042 0 2.89-2.255 4.472-5.286 4.472-2.963 0-4.877-1.42-5.813-3.282l2.592-1.515zm-11.27.278c.502.895.957 1.65 2.054 1.65 1.048 0 1.709-.412 1.709-2.016V22.971h3.19v10.956c0 3.324-1.937 4.836-4.764 4.836-2.554 0-4.033-1.33-4.785-2.931l2.596-1.582z" fill="url(#paint1_linear)"/><defs><linearGradient id="paint0_linear" x1="48.154" y1="6.308" x2="-2.057" y2="31.004" gradientUnits="userSpaceOnUse"><stop offset=".125" stop-color="#F7DF1E"/><stop offset=".547" stop-color="#C00"/><stop offset=".833" stop-color="#980D03"/></linearGradient><linearGradient id="paint1_linear" x1="38" y1="14.461" x2="24.147" y2="39.428" gradientUnits="userSpaceOnUse"><stop offset=".112" stop-color="#F7DF1E"/><stop offset=".3" stop-color="#C00"/><stop offset=".545" stop-color="#980D03"/></linearGradient></defs></svg>