<svg width="259" height="199" fill="none" xmlns="http://www.w3.org/2000/svg">
<style>
* { color: #000; }
@media (prefers-color-scheme: dark) { * { color: #CCC; } }
</style>
<path d="M141.348 0c-3.514 0-7.178.207-10.935.658l2.179 6.726c3.291-.32 6.596-.47 9.902-.451h1.127L141.367 0h-.019zm43.496 6.726l-.451 7.516a184.456 184.456 0 0111.048 4.077l.488-7.59c-1.033-.564-3.908-1.955-11.085-4.003zm-93.719 4.322a180.394 180.394 0 00-8.887 4.885l5.261 8.004c2.95-1.823 5.787-3.57 8.756-5.036l-5.13-7.834v-.02zm54.3.413c-4.102-.07-8.205.099-12.288.507-8.323.752-17.079 3.176-25.928 7.046-26.643 11.612-54.074 36.037-72.018 65.949-17.943 29.893-24.256 56.366-26.304 67.696-.695 3.795-.94 5.88-.94 5.88h89.999s-1.071-4.885-1.804-12.738a153.687 153.687 0 01-.62-13.754c0-10.334 1.033-22.603 4.584-34.91a88.712 88.712 0 017.384-18.206c3.195-5.9 7.159-11.61 12.138-16.797 4.979-5.185 10.973-9.864 18.094-13.828 4.659-2.255 13.114-6.858 25.289-9.188a81.58 81.58 0 0113.397-1.428c4.885-.094 10.183.226 15.876 1.128 11.386 1.822 24.388 6.012 38.987 13.903 7.29 3.965 14.993 8.83 23.072 14.806 2.067-1.691 3.965-3.044 3.965-3.044s-3.683-3.701-10.278-9.131c-6.576-5.45-16.027-12.626-27.563-19.597a203.346 203.346 0 00-18.751-10.108c-6.874-3.237-13.961-6-21.212-8.267a140.552 140.552 0 00-23.036-5.073c-3.99-.495-8.004-.777-12.024-.846h-.019zm39.193 31.002l-.432 7.196c3.758.112 7.516.563 11.273 1.352l.47-7.045a81.14 81.14 0 00-11.311-1.503zm-26.642 2.743a83.32 83.32 0 00-10.015 3.645l2.612 7.853a69.329 69.329 0 019.902-3.964l-2.499-7.516v-.018zm-112.883.45c-2.95 2.838-5.825 5.694-8.436 8.55l8.774 7.515c2.386-3.063 5.017-6.144 7.741-8.981l-8.079-7.083zm81.543 16.873a62.145 62.145 0 00-7.046 7.647l5.468 8.173c1.935-2.837 4.209-5.449 6.726-8.08l-5.148-7.74zM106.495 94.3a107.884 107.884 0 00-3.42 12.513l9.207 7.29c.469-4.434 1.296-8.868 2.442-13.321l-8.229-6.482zM5.693 98.848c-2.16 4.885-4.547 10.578-5.693 13.659l13.096 4.791c1.503-3.87 3.87-9.469 5.693-13.678L5.693 98.848zm95.672 36.882c.226 6.031.808 10.973 1.391 14.373l13.64 4.885a150.03 150.03 0 01-2.705-14.786l-12.326-4.472z" fill="url(#paint0_linear)"/><path d="M208.711 132.791c3.671 6.029 8.446 10.461 16.892 10.461 7.095 0 11.627-3.568 11.627-8.497 0-5.907-4.657-7.999-12.466-11.435l-4.281-1.848c-12.356-5.296-20.565-11.93-20.565-25.955 0-12.92 9.785-22.754 25.077-22.754 10.887 0 18.714 3.811 24.354 13.792l-13.334 8.613c-2.936-5.296-6.103-7.382-11.02-7.382-5.015 0-8.194 3.2-8.194 7.382 0 5.167 3.182 7.26 10.528 10.46l4.281 1.845c14.549 6.276 22.763 12.675 22.763 27.061 0 15.509-12.11 24.005-28.374 24.005-15.902 0-26.176-7.623-31.203-17.615l13.915-8.133zm-60.488 1.493c2.69 4.801 5.137 8.86 11.02 8.86 5.626 0 9.175-2.214 9.175-10.824V73.746h17.123v58.806c0 17.837-10.396 25.955-25.569 25.955-13.71 0-21.649-7.137-25.687-15.734l13.938-8.489z" fill="url(#paint1_linear)"/><path d="M20.296 179.607v-5.815H4.606v24.818h6.57v-9.324h8.042v-5.708h-8.042v-3.971h9.12zM40.398 189.569c2.55-1.453 4.093-4.006 4.093-7.02 0-5.247-3.95-8.757-9.586-8.757h-10.7v24.818h6.57v-7.658h3.52l4.236 7.658h7.36v-.177l-5.493-8.864zm-9.622-10.175h3.806c2.046 0 3.267 1.135 3.267 3.014 0 1.914-1.22 3.049-3.267 3.049h-3.806v-6.063zM61.123 199c7.72 0 13.177-5.283 13.177-12.799 0-7.516-5.458-12.799-13.177-12.799-7.72 0-13.176 5.283-13.176 12.799 0 7.516 5.457 12.799 13.176 12.799zm0-6.169c-3.877 0-6.463-2.659-6.463-6.63 0-4.006 2.586-6.63 6.463-6.63 3.878 0 6.463 2.659 6.463 6.63s-2.585 6.63-6.463 6.63zM101.643 173.722l-10.305 10.742-10.34-10.742h-2.657v24.888h6.57v-6.878l-.107-5.495 6.283 6.346h.467l6.319-6.346-.144 5.495v6.878h6.571v-24.888h-2.657zM134.47 189.569c2.549-1.453 4.093-4.006 4.093-7.02 0-5.247-3.95-8.757-9.587-8.757h-10.699v24.818h6.571v-7.658h3.518l4.237 7.658h7.36v-.177l-5.493-8.864zm-9.622-10.175h3.805c2.047 0 3.268 1.135 3.268 3.014 0 1.914-1.221 3.049-3.268 3.049h-3.805v-6.063zM155.195 199c7.719 0 13.176-5.283 13.176-12.799 0-7.516-5.457-12.799-13.176-12.799s-13.177 5.283-13.177 12.799c0 7.516 5.458 12.799 13.177 12.799zm0-6.169c-3.878 0-6.463-2.659-6.463-6.63 0-4.006 2.585-6.63 6.463-6.63 3.877 0 6.462 2.659 6.462 6.63s-2.585 6.63-6.462 6.63zM182.646 199c6.391 0 10.448-3.971 10.448-9.856v-15.352h-6.571v15.316c0 2.447-1.364 3.794-3.877 3.794-2.514 0-3.878-1.347-3.878-3.794v-15.316h-6.57v15.352c0 5.885 4.057 9.856 10.448 9.856zM214.877 173.792h-18.705v5.815h6.067v19.003h6.571v-19.003h6.067v-5.815zM224.704 192.796v-3.865h8.437v-5.672h-8.437v-3.688h9.155v-5.779h-15.69v24.818h16.013v-5.814h-9.478zM247.835 199c6.104 0 10.269-3.084 10.269-7.693 0-4.432-2.729-7.268-10.017-7.978-2.909-.283-3.842-.921-3.842-2.162 0-1.312 1.185-2.127 3.375-2.127 2.154 0 3.447.921 3.447 2.481h6.319c0-4.857-3.986-8.119-9.838-8.119-5.852 0-9.838 3.085-9.838 7.552 0 4.184 2.406 7.233 9.264 7.977 2.944.319 4.487.78 4.487 2.198 0 1.383-1.364 2.198-3.698 2.198-2.513 0-3.877-.992-3.877-2.694h-6.427c0 5.247 3.878 8.367 10.376 8.367z" fill="currentColor"/><defs><linearGradient id="paint0_linear" x1="258.452" y1="-15.689" x2="-11.038" y2="116.859" gradientUnits="userSpaceOnUse"><stop offset=".125" stop-color="#F7DF1E"/><stop offset=".547" stop-color="#C00"/><stop offset=".833" stop-color="#980D03"/></linearGradient><linearGradient id="paint1_linear" x1="203.954" y1="28.075" x2="129.601" y2="162.075" gradientUnits="userSpaceOnUse"><stop offset=".112" stop-color="#F7DF1E"/><stop offset=".3" stop-color="#C00"/><stop offset=".545" stop-color="#980D03"/></linearGradient></defs></svg>
