<svg width="313" height="192" fill="none" xmlns="http://www.w3.org/2000/svg"><path d="M171.18 0c-4.255 0-8.692.25-13.243.796l2.639 8.146a117.2 117.2 0 0111.992-.546h1.365L171.203 0h-.023zm52.676 8.146l-.546 9.102a223.39 223.39 0 0113.379 4.937l.592-9.192c-1.252-.683-4.733-2.367-13.425-4.847zm-113.498 5.233a218.634 218.634 0 00-10.763 5.917l6.371 9.693c3.573-2.207 7.009-4.323 10.604-6.098l-6.212-9.489v-.022zm65.76.501c-4.969-.085-9.937.12-14.882.614-10.08.91-20.683 3.846-31.4 8.533C97.57 37.09 64.349 66.67 42.619 102.895c-21.73 36.201-29.376 68.262-31.856 81.983C9.92 189.474 9.625 192 9.625 192h108.993s-1.297-5.916-2.185-15.427a186.354 186.354 0 01-.751-16.656c0-12.515 1.252-27.374 5.552-42.278a107.358 107.358 0 018.943-22.049c3.868-7.144 8.669-14.062 14.699-20.342 6.03-6.28 13.289-11.946 21.912-16.747 5.643-2.73 15.883-8.305 30.628-11.127a98.785 98.785 0 0116.223-1.73c5.916-.113 12.333.274 19.228 1.366 13.789 2.207 29.535 7.282 47.215 16.838 8.828 4.801 18.157 10.695 27.942 17.93 2.503-2.047 4.801-3.686 4.801-3.686s-4.46-4.482-12.447-11.058c-7.964-6.599-19.409-15.29-33.38-23.733a246.494 246.494 0 00-22.709-12.242A201.427 201.427 0 00218.6 21.049a170.223 170.223 0 00-27.897-6.144 137.63 137.63 0 00-14.563-1.024h-.022zm47.465 37.544l-.523 8.715c4.55.137 9.101.683 13.652 1.639l.569-8.533a98.301 98.301 0 00-13.698-1.82zm-32.266 3.323a101.012 101.012 0 00-12.128 4.414l3.163 9.511a83.953 83.953 0 0111.992-4.8l-3.027-9.103v-.022zm-136.707.546c-3.572 3.436-7.054 6.894-10.216 10.353l10.626 9.102c2.89-3.71 6.075-7.441 9.374-10.877l-9.784-8.578zm98.753 20.433a75.237 75.237 0 00-8.532 9.261l6.621 9.898c2.344-3.436 5.097-6.599 8.146-9.784l-6.235-9.375zm-24.392 38.477a130.66 130.66 0 00-4.141 15.155l11.149 8.828c.569-5.37 1.57-10.74 2.958-16.132l-9.966-7.851zM6.895 119.71C4.278 125.626 1.388 132.521 0 136.252l15.86 5.803c1.82-4.688 4.687-11.469 6.894-16.566l-15.86-5.779zm115.864 44.666c.273 7.304.978 13.289 1.684 17.407l16.519 5.916a182.083 182.083 0 01-3.276-17.907l-14.927-5.416z" fill="url(#paint0_linear)"/><path d="M252.761 160.817c4.445 7.302 10.228 12.668 20.456 12.668 8.593 0 14.082-4.32 14.082-10.289 0-7.154-5.64-9.687-15.097-13.849l-5.185-2.238c-14.963-6.413-24.904-14.448-24.904-31.433 0-15.646 11.85-27.557 30.369-27.557 13.184 0 22.663 4.617 29.493 16.704l-16.148 10.43c-3.555-6.413-7.39-8.94-13.345-8.94-6.074 0-9.924 3.876-9.924 8.94 0 6.259 3.853 8.792 12.751 12.669l5.184 2.234c17.619 7.601 27.567 15.35 27.567 32.772 0 18.782-14.666 29.072-34.363 29.072-19.258 0-31.7-9.233-37.788-21.334l16.852-9.849zm-73.254 1.808c3.258 5.814 6.221 10.73 13.346 10.73 6.813 0 11.111-2.682 11.111-13.109V89.31H224.7v71.218c0 21.602-12.589 31.433-30.965 31.433-16.603 0-26.218-8.644-31.108-19.055l16.88-10.281z" fill="url(#paint1_linear)"/><defs><linearGradient id="paint0_linear" x1="313" y1="-19" x2="-13.368" y2="141.523" gradientUnits="userSpaceOnUse"><stop offset=".125" stop-color="#F7DF1E"/><stop offset=".547" stop-color="#C00"/><stop offset=".833" stop-color="#980D03"/></linearGradient><linearGradient id="paint1_linear" x1="247" y1="34" x2="156.954" y2="196.282" gradientUnits="userSpaceOnUse"><stop offset=".112" stop-color="#F7DF1E"/><stop offset=".3" stop-color="#C00"/><stop offset=".545" stop-color="#980D03"/></linearGradient></defs></svg>